# xmcd
#
# Track frame offsets:
# 150
# 13308
# 25184
# 44159
# 58641
# 86912
# 100808
# 126233
# 142658
# 154311
# 169500
#
# Disc length: 2556 seconds
#
#
# Revision: 0
# Processed by: cddbd v1.5.1PL0 Copyright (c) Steve Scherf et al.
# Submitted via: FreeRIP 2.70 
#
DISCID=9209fa0b
DTITLE=Brigada Victor Jara - Danças e Folias
DYEAR=1900
DGENRE=Country
TTITLE0=Jota Carvalhesa
TTITLE1=Chula de Paus
TTITLE2=Mi Morena
TTITLE3=Campanitas de Toledo
TTITLE4=A Fofa
TTITLE5=Mazurca
TTITLE6=Moda da Zamburra
TTITLE7=O Mineiro
TTITLE8=Fraile Cornudo
TTITLE9=Ghote
TTITLE10=Donde Vas
EXTD=
EXTT0=
EXTT1=
EXTT2=
EXTT3=
EXTT4=
EXTT5=
EXTT6=
EXTT7=
EXTT8=
EXTT9=
EXTT10=
PLAYORDER=
